<?xml version="1.0" standalone="no"?>

<svg version="1.0" xmlns="http://www.w3.org/2000/svg"
 width="515.000000pt" height="242.000000pt" viewBox="0 0 515.000000 242.000000"
 preserveAspectRatio="xMidYMid meet">

<g transform="translate(0.000000,242.000000) scale(0.100000,-0.100000)"
fill="#000000" stroke="none">
<path d="M150 2252 c-74 -37 -70 28 -70 -1060 0 -1097 -5 -1027 74 -1063 40
-18 126 -19 2401 -19 2275 0 2361 1 2401 19 79 36 74 -34 74 1063 0 1088 4
1023 -70 1060 -33 17 -169 18 -2405 18 -2236 0 -2372 -1 -2405 -18z m607 -325
c12 -85 40 -192 67 -252 l13 -30 17 55 c16 52 29 136 42 263 l5 57 175 0 175
0 -8 -117 c-19 -278 0 -536 52 -700 l23 -73 -152 0 -151 0 0 133 c0 139 -11
247 -25 247 -13 0 -60 -210 -67 -299 l-6 -81 -98 0 -99 0 0 33 c0 58 -28 220
-51 292 -21 68 -22 69 -32 40 -13 -43 -14 -283 0 -327 l11 -38 -158 0 -158 0
24 78 c35 111 63 270 70 386 6 93 1 153 -33 384 l-6 42 179 -2 178 -3 13 -88z
m1382 -54 c0 -194 17 -282 100 -535 l69 -208 -175 0 -175 0 6 23 c3 12 9 57
13 99 l6 78 -32 -11 c-19 -7 -61 -9 -97 -6 l-64 5 0 -32 c0 -17 6 -59 14 -93
l13 -63 -177 0 -177 0 58 170 c75 221 99 343 106 540 2 85 6 161 8 168 3 9 63
12 254 12 l250 0 0 -147z m684 132 c-9 -56 -33 -235 -38 -291 l-7 -71 44 -18
c23 -9 69 -20 102 -23 l58 -5 -7 84 c-8 95 -31 275 -41 314 l-6 25 166 0 c91
0 166 -2 166 -4 0 -2 -10 -57 -21 -123 -36 -199 -28 -559 17 -737 l6 -26 -172
0 c-151 0 -171 2 -166 15 17 44 36 128 44 189 l9 68 -35 -6 c-33 -5 -94 4
-137 20 -17 7 -18 2 -11 -62 6 -59 22 -138 42 -206 5 -17 -8 -18 -166 -18
l-172 0 7 28 c49 194 48 591 -1 830 l-7 33 164 -3 c105 -2 163 -7 162 -13z
m958 10 c3 -2 -5 -64 -18 -137 -40 -239 -48 -391 -29 -563 9 -82 16 -158 16
-167 0 -16 -14 -18 -150 -18 l-151 0 6 33 c34 204 33 660 -1 830 l-6 27 165 0
c90 0 166 -2 168 -5z m760 -19 c125 -46 197 -183 159 -302 -24 -73 -45 -93
-131 -127 l-36 -15 49 -98 c27 -55 55 -105 62 -113 21 -21 64 -16 91 9 14 13
28 20 32 16 15 -14 7 -140 -10 -172 -70 -135 -259 -138 -326 -6 -10 20 -26 75
-36 122 -22 110 -46 153 -99 182 -18 10 -18 7 -12 -63 4 -41 16 -121 27 -179
10 -58 19 -108 19 -112 0 -5 -79 -8 -176 -8 l-176 0 5 48 c24 227 30 413 18
575 -6 95 -14 194 -18 221 l-6 48 259 -4 c209 -4 268 -8 305 -22z m-3900
-1046 c19 -5 48 -23 64 -40 25 -26 29 -39 29 -86 1 -49 -2 -59 -27 -80 -32
-28 -63 -31 -95 -8 -40 28 -21 105 22 88 9 -3 16 -3 16 0 0 4 -12 11 -26 17
-37 13 -74 -11 -74 -49 1 -34 15 -52 65 -81 52 -31 103 -79 121 -113 36 -69 4
-153 -76 -197 -36 -20 -58 -25 -129 -25 -96 -1 -142 15 -176 62 -52 71 -1 162
90 162 85 0 118 -79 50 -118 -19 -11 -18 -11 7 -12 32 0 48 24 48 70 0 37 -30
68 -110 114 -103 58 -127 163 -57 243 18 20 45 42 62 49 36 16 146 18 196 4z
m1074 -9 c51 -24 96 -72 132 -141 24 -48 28 -66 28 -141 0 -75 -4 -92 -30
-145 -22 -43 -43 -68 -79 -92 -43 -28 -56 -32 -116 -32 -57 0 -73 4 -108 28
-55 36 -89 85 -109 151 -45 155 44 339 185 381 41 12 53 11 97 -9z m-659 -41
c-3 -22 -9 -73 -12 -113 -6 -72 -6 -73 20 -85 15 -7 43 -12 62 -12 l34 0 -6
58 c-3 31 -10 84 -15 117 -5 33 -9 63 -9 68 0 4 46 7 101 7 l101 0 -6 -27
c-22 -100 -29 -248 -18 -355 7 -62 15 -123 18 -135 6 -23 5 -23 -99 -23 l-105
0 14 53 c7 28 14 64 14 80 0 23 -4 27 -29 27 -16 0 -41 4 -55 10 -31 12 -32 6
-11 -95 8 -38 15 -71 15 -72 0 -2 -47 -3 -104 -3 l-104 0 9 38 c25 104 20 415
-8 488 -4 11 14 14 97 14 l103 0 -7 -40z m1280 14 c65 -48 88 -124 65 -211
-24 -89 -90 -136 -190 -137 l-63 0 5 -50 c3 -28 9 -66 13 -83 l7 -33 -98 0
-98 0 7 43 c21 143 16 377 -10 475 l-7 24 171 -4 c154 -3 173 -5 198 -24z
m550 -21 c-4 -27 -10 -77 -13 -113 -5 -64 -5 -66 21 -78 15 -7 43 -12 62 -12
l35 0 -6 63 c-4 34 -11 86 -16 116 -5 30 -9 58 -9 63 0 4 46 8 101 8 l101 0
-6 -27 c-21 -98 -28 -249 -17 -355 6 -62 14 -123 17 -135 6 -23 5 -23 -98 -23
l-105 0 13 52 c8 29 14 65 14 80 0 24 -4 28 -29 28 -16 0 -41 4 -55 10 -31 12
-32 6 -11 -95 8 -38 15 -71 15 -72 0 -2 -47 -3 -104 -3 l-104 0 11 43 c6 23
11 125 11 227 0 102 -5 204 -11 228 l-11 42 100 0 101 0 -7 -47z m781 25 c-3
-13 -9 -52 -13 -87 -7 -61 -8 -63 -23 -45 -25 31 -63 54 -88 54 -31 0 -91 -57
-102 -97 l-10 -33 29 15 c58 30 130 13 150 -35 29 -70 -76 -123 -112 -57 l-11
21 -18 -23 c-42 -51 -8 -101 68 -101 37 0 53 6 75 27 l28 27 0 -30 c0 -16 6
-57 14 -91 l13 -63 -203 0 -202 0 10 38 c17 68 21 340 6 425 l-14 77 204 0
204 0 -5 -22z m477 8 c99 -41 122 -186 38 -242 -18 -13 -37 -24 -43 -26 -15
-5 54 -133 74 -136 10 -2 27 4 37 13 18 16 19 16 26 -9 10 -42 -17 -107 -55
-133 -40 -27 -71 -29 -111 -8 -36 19 -54 52 -70 128 -11 54 -51 120 -64 106
-6 -5 2 -77 20 -181 l7 -38 -110 0 -110 0 10 68 c5 37 7 158 5 270 l-5 202
159 0 c112 0 168 -4 192 -14z m620 -68 c-6 -46 -12 -84 -13 -86 0 -2 -12 10
-26 26 -50 60 -127 47 -165 -28 -27 -53 -25 -61 11 -43 37 19 102 12 130 -13
28 -25 25 -79 -5 -99 -29 -19 -70 -11 -90 17 -13 17 -15 18 -30 3 -24 -24 -20
-71 6 -89 35 -25 101 -20 136 9 l29 24 7 -62 c3 -34 9 -74 12 -89 l6 -28 -202
0 c-187 0 -201 1 -196 18 11 37 26 190 26 267 0 77 -11 171 -25 228 l-7 27
204 0 204 0 -12 -82z"/>
<path d="M1851 1659 c-17 -63 -31 -119 -31 -125 0 -27 116 -25 127 2 5 13 -40
194 -56 221 -6 11 -18 -19 -40 -98z"/>
<path d="M4252 1748 l3 -73 47 -3 c79 -5 128 35 116 95 -5 26 -65 53 -121 53
l-48 0 3 -72z"/>
<path d="M1618 793 c-26 -28 -38 -70 -38 -129 0 -63 21 -111 53 -123 77 -29
126 116 75 219 -26 51 -62 64 -90 33z"/>
<path d="M2155 822 c-3 -3 -5 -29 -5 -59 0 -52 1 -53 29 -53 16 0 37 7 45 16
19 19 21 68 4 81 -15 12 -65 22 -73 15z"/>
<path d="M3950 798 c0 -52 11 -68 45 -68 37 0 65 22 65 50 0 25 -29 40 -74 40
-31 0 -36 -3 -36 -22z"/>
</g>
</svg>
